<svg width="61" height="61" viewBox="0 0 61 61" fill="none" xmlns="http://www.w3.org/2000/svg">
<g filter="url(#filter0_d_86_7)">
<path d="M25.6578 8.99896L32.411 5.76881C43.8731 6.72291 52.7265 12.7633 52.7731 20.1645C52.8181 27.2868 44.6382 33.2657 33.7694 34.6587L33.7424 30.3748C40.8569 29.0852 46.0604 25.0169 46.0301 20.207C45.9981 15.1263 40.1449 10.9508 32.4491 10.0319L32.6627 43.8984L25.9102 47.2481L25.669 8.99889L25.6578 8.99896ZM8.1661 23.1537L21.262 25.9096L17.6095 27.995C19.5595 29.1286 21.9554 29.9598 24.5976 30.4213L24.6246 34.7052C20.0201 34.186 15.8772 32.8176 12.6168 30.8666L9.14215 32.8616L8.1661 23.1537Z" fill="#0F3275"/>
<path d="M10.5 5.99799C10.3011 5.99799 10.1103 6.077 9.96967 6.21766C9.82902 6.35831 9.75 6.54907 9.75 6.74799V7.07999C8.97044 7.25119 8.27278 7.68363 7.77264 8.30563C7.27249 8.92763 6.99989 9.70185 7 10.5V10.78C6.9998 11.4977 7.20395 12.2007 7.58858 12.8067C7.97321 13.4127 8.52243 13.8967 9.172 14.202L9.75 14.474V19.338C9.38053 19.1885 9.06414 18.9321 8.84142 18.6016C8.6187 18.2711 8.49981 17.8815 8.5 17.483V16.403C8.5 16.2041 8.42098 16.0133 8.28033 15.8727C8.13968 15.732 7.94891 15.653 7.75 15.653C7.55109 15.653 7.36032 15.732 7.21967 15.8727C7.07902 16.0133 7 16.2041 7 16.403V17.483C6.99989 18.2811 7.27249 19.0553 7.77264 19.6773C8.27278 20.2993 8.97044 20.7318 9.75 20.903V21.25C9.75 21.4489 9.82902 21.6397 9.96967 21.7803C10.1103 21.921 10.3011 22 10.5 22C10.6989 22 10.8897 21.921 11.0303 21.7803C11.171 21.6397 11.25 21.4489 11.25 21.25V20.902C12.0296 20.7308 12.7272 20.2983 13.2274 19.6763C13.7275 19.0543 14.0001 18.2801 14 17.482V17.21C14 16.4937 13.7961 15.7922 13.4122 15.1875C13.0283 14.5828 12.4802 14.0998 11.832 13.795L11.25 13.52V8.64499C11.6193 8.79438 11.9356 9.05066 12.1583 9.38098C12.381 9.7113 12.5 10.1006 12.5 10.499V11.595C12.5 11.7939 12.579 11.9847 12.7197 12.1253C12.8603 12.266 13.0511 12.345 13.25 12.345C13.4489 12.345 13.6397 12.266 13.7803 12.1253C13.921 11.9847 14 11.7939 14 11.595V10.499C14.0001 9.70085 13.7275 8.92663 13.2274 8.30463C12.7272 7.68263 12.0296 7.25019 11.25 7.07899V6.74799C11.25 6.54907 11.171 6.35831 11.0303 6.21766C10.8897 6.077 10.6989 5.99799 10.5 5.99799V5.99799ZM8.5 10.5C8.50001 10.1016 8.61899 9.7123 8.8417 9.38198C9.06441 9.05166 9.38069 8.79538 9.75 8.64599V12.816C9.37379 12.6254 9.05779 12.3341 8.83712 11.9747C8.61646 11.6153 8.49976 11.2017 8.5 10.78V10.5ZM11.25 19.339V15.18C11.6258 15.3695 11.9417 15.6596 12.1623 16.0181C12.383 16.3765 12.4999 16.7891 12.5 17.21V17.483C12.5002 17.8815 12.3813 18.2711 12.1586 18.6016C11.9359 18.9321 11.6195 19.1885 11.25 19.338V19.339ZM17.505 14C17.505 13.665 17.524 13.339 17.56 13.022H19.254C19.4529 13.022 19.6437 12.943 19.7843 12.8023C19.925 12.6617 20.004 12.4709 20.004 12.272C20.004 12.0731 19.925 11.8823 19.7843 11.7417C19.6437 11.601 19.4529 11.522 19.254 11.522H17.884C18.0547 10.9834 18.2994 10.4712 18.611 9.99999C19.282 9.00399 20.131 8.49999 20.969 8.49999C21.2735 8.49945 21.5719 8.58584 21.829 8.74899C21.9934 8.86104 22.1956 8.90318 22.3912 8.86614C22.5867 8.82911 22.7594 8.71592 22.8715 8.55149C22.9836 8.38705 23.0257 8.18484 22.9887 7.98933C22.9516 7.79383 22.8384 7.62104 22.674 7.50899C22.1677 7.17614 21.5749 6.99916 20.969 6.99999C19.48 6.99999 18.221 7.89499 17.367 9.16099C16.8893 9.88435 16.5354 10.6823 16.32 11.522H15.751C15.5521 11.522 15.3613 11.601 15.2207 11.7417C15.08 11.8823 15.001 12.0731 15.001 12.272C15.001 12.4709 15.08 12.6617 15.2207 12.8023C15.3613 12.943 15.5521 13.022 15.751 13.022H16.052C16.0196 13.3553 16.0039 13.6901 16.005 14.025H15.751C15.5521 14.0251 15.3614 14.1043 15.2208 14.245C15.0803 14.3858 15.0014 14.5766 15.0015 14.7755C15.0016 14.9744 15.0808 15.1651 15.2215 15.3057C15.3623 15.4462 15.5531 15.5251 15.752 15.525H16.122C16.317 16.784 16.752 17.925 17.367 18.839C18.221 20.105 19.48 21 20.969 21C21.511 21 22.161 20.865 22.692 20.483C22.7741 20.4264 22.8441 20.354 22.8979 20.27C22.9517 20.1861 22.9882 20.0922 23.0053 19.994C23.0223 19.8957 23.0197 19.795 22.9974 19.6979C22.9751 19.6007 22.9336 19.5089 22.8755 19.4279C22.8173 19.3469 22.7435 19.2783 22.6585 19.2262C22.5735 19.174 22.479 19.1394 22.3804 19.1242C22.2819 19.109 22.1813 19.1137 22.0845 19.1378C21.9878 19.162 21.8968 19.2052 21.817 19.265C21.61 19.415 21.294 19.5 20.969 19.5C20.13 19.5 19.282 18.996 18.611 18C18.165 17.339 17.821 16.49 17.642 15.523L19.255 15.522C19.3535 15.5219 19.451 15.5023 19.5419 15.4645C19.6329 15.4267 19.7155 15.3713 19.785 15.3016C19.8546 15.2319 19.9097 15.1491 19.9473 15.0581C19.9849 14.967 20.0041 14.8695 20.004 14.771C20.0039 14.6725 19.9843 14.575 19.9465 14.484C19.9087 14.3931 19.8534 14.3105 19.7836 14.2409C19.7139 14.1714 19.6311 14.1163 19.5401 14.0787C19.449 14.0411 19.3515 14.0219 19.253 14.022L17.505 14.023V14V14Z" fill="#0F3275"/>
</g>
<defs>
<filter id="filter0_d_86_7" x="0.839844" y="0.839722" width="59.3206" height="59.3206" filterUnits="userSpaceOnUse" color-interpolation-filters="sRGB">
<feFlood flood-opacity="0" result="BackgroundImageFix"/>
<feColorMatrix in="SourceAlpha" type="matrix" values="0 0 0 0 0 0 0 0 0 0 0 0 0 0 0 0 0 0 127 0" result="hardAlpha"/>
<feOffset dy="4"/>
<feGaussianBlur stdDeviation="2"/>
<feComposite in2="hardAlpha" operator="out"/>
<feColorMatrix type="matrix" values="0 0 0 0 0 0 0 0 0 0 0 0 0 0 0 0 0 0 0.25 0"/>
<feBlend mode="normal" in2="BackgroundImageFix" result="effect1_dropShadow_86_7"/>
<feBlend mode="normal" in="SourceGraphic" in2="effect1_dropShadow_86_7" result="shape"/>
</filter>
</defs>
</svg>
